<svg xmlns="http://www.w3.org/2000/svg" width="19.538" height="21" viewBox="0 0 19.538 21">
  <g id="promotion_1_" data-name="promotion (1)" transform="translate(-9.672 -8.001)">
    <path id="Path_84" data-name="Path 84" d="M50.814,22.048a2.736,2.736,0,0,0,.455-.622,2.852,2.852,0,0,0-1.078-3.787,2.724,2.724,0,0,0-.715-.289l1.338,4.7Z" transform="translate(-22.39 -5.259)" fill="#fff"/>
    <path id="Path_85" data-name="Path 85" d="M26.668,41.5a13.119,13.119,0,0,0-2.377.473l-1.8.511,1.083,3.8a2.145,2.145,0,0,0,2.057,1.557A2.144,2.144,0,0,0,27.7,45.117L26.668,41.5Z" transform="translate(-7.213 -18.845)" fill="#fff"/>
    <g id="Group_9" data-name="Group 9" transform="translate(9.672 8.001)">
      <path id="Path_86" data-name="Path 86" d="M13.891,20.909l-2.158.615a2.912,2.912,0,0,0-1.945,3.623l.881,3.092a2.978,2.978,0,0,0,1.372,1.774,2.8,2.8,0,0,0,2.191.281l2.269-.646-2.609-8.738Z" transform="translate(-9.672 -15.262)" fill="#fff"/>
      <path id="Path_87" data-name="Path 87" d="M35.009,20.248l-3.162-11.1a1.572,1.572,0,0,0-2.579-.727c-2.881,2.691-5.438,4.286-8.024,5l2.609,8.74a21.519,21.519,0,0,1,9.349.066,1.574,1.574,0,0,0,1.805-1.975Z" transform="translate(-16.182 -8.001)" fill="#fff"/>
    </g>
  </g>
</svg>
