<svg xmlns="http://www.w3.org/2000/svg" width="19.831" height="25" viewBox="0 0 19.831 25">
  <g id="padlock_2_" data-name="padlock (2)" transform="translate(-5.2 -1.727)">
    <path id="Path_34" data-name="Path 34" d="M23.822,12.241a4.106,4.106,0,0,0-2.92-1.208V7.725a5.787,5.787,0,1,0-11.565,0v3.308A4.129,4.129,0,0,0,5.2,15.161V22.6a4.129,4.129,0,0,0,4.129,4.129H20.9A4.129,4.129,0,0,0,25.031,22.6V15.161a4.1,4.1,0,0,0-1.208-2.92ZM10.987,7.725a4.133,4.133,0,0,1,8.265,0v3.308H10.987ZM23.381,22.6A2.479,2.479,0,0,1,20.9,25.077H9.329A2.479,2.479,0,0,1,6.85,22.6V15.161a2.479,2.479,0,0,1,2.479-2.479H20.9a2.479,2.479,0,0,1,2.479,2.479Z" fill="#F05050"/>
    <path id="Path_35" data-name="Path 35" d="M17.278,19.07a2.471,2.471,0,0,0-.829,4.8v2.634H18.1V23.873a2.471,2.471,0,0,0-.821-4.8Zm0,3.308a.825.825,0,1,0,0-.008Z" transform="translate(-2.163 -3.909)" fill="#F05050"/>
  </g>
</svg>
