<svg xmlns="http://www.w3.org/2000/svg" width="42.02" height="45" viewBox="0 0 42.02 45">
  <g id="diamond" transform="translate(-0.5 0.003)">
    <path id="Path_137221" data-name="Path 137221" d="M34.854,184.156l-6.665-8.662a1.464,1.464,0,0,0-1.16-.571H8.785a1.464,1.464,0,0,0-1.16.571L.96,184.156a2.2,2.2,0,0,0,.025,2.709L14.687,204a1.462,1.462,0,0,0,1.143.549h4.155A1.463,1.463,0,0,0,21.127,204l13.7-17.133a2.195,2.195,0,0,0,.025-2.709Zm0,0" transform="translate(-0.005 -159.551)" fill="#b7e5f7"/>
    <path id="Path_137222" data-name="Path 137222" d="M201.98,184.156l-6.665-8.662a1.464,1.464,0,0,0-1.16-.571H190.78a1.464,1.464,0,0,1,1.16.571l6.665,8.662a2.195,2.195,0,0,1-.025,2.709L184.877,204a1.462,1.462,0,0,1-1.143.549h3.375a1.463,1.463,0,0,0,1.143-.549l13.7-17.133a2.195,2.195,0,0,0,.025-2.709Zm0,0" transform="translate(-167.13 -159.551)" fill="#84c8d8"/>
    <path id="Path_137223" data-name="Path 137223" d="M16.755,314.525h-.931a1.462,1.462,0,0,1-1.143-.55L.981,296.841A2.193,2.193,0,0,1,.5,295.5h9.674Zm0,0" transform="translate(0 -269.528)" fill="#94d8ed"/>
    <path id="Path_137224" data-name="Path 137224" d="M259.774,185.516H250.1l-3.5-10.6h4.9a1.462,1.462,0,0,1,1.159.571l6.665,8.663A2.194,2.194,0,0,1,259.774,185.516Zm0,0" transform="translate(-224.469 -159.547)" fill="#def6ff"/>
    <path id="Path_137225" data-name="Path 137225" d="M275.5,185.048a2.185,2.185,0,0,0-.41-.893l-5.169-6.719-1.5-1.944a1.464,1.464,0,0,0-1.16-.571H263.89a1.464,1.464,0,0,1,1.159.571l6.665,8.662a2.192,2.192,0,0,1,.455,1.364h3.375a2.2,2.2,0,0,0-.041-.45s0-.01,0-.014Zm0,0" transform="translate(-240.241 -159.551)" fill="#b7e5f7"/>
    <path id="Path_137226" data-name="Path 137226" d="M126.028,185.516H110.571l3.5-10.6h8.454Zm0,0" transform="translate(-100.397 -159.547)" fill="#94d8ed"/>
    <path id="Path_137227" data-name="Path 137227" d="M126.028,295.5l-6.581,19.029h-2.294L110.571,295.5Zm0,0" transform="translate(-100.397 -269.528)" fill="#def6ff"/>
    <path id="Path_137228" data-name="Path 137228" d="M185.424,472.158h2.295l1.327-3.838-2.63,3.289a1.461,1.461,0,0,1-.994.542Zm0,0" transform="translate(-168.669 -427.162)" fill="#b7e5f7"/>
    <path id="Path_137229" data-name="Path 137229" d="M197.732,35.605l-2.1-7.621-6.508,4.489L182.73,25.5l.338,11.874a.915.915,0,0,0,.6.833l14.552,5.3a.915.915,0,0,0,1-.252l7.892-8.879Zm0,0" transform="translate(-166.215 -23.265)" fill="#ffcd34"/>
    <path id="Path_137230" data-name="Path 137230" d="M343.163,126.947l-6.3,7.627a.825.825,0,0,1-.913.282l2.025.737a.914.914,0,0,0,1-.252l7.892-8.879Zm0,0" transform="translate(-305.967 -115.35)" fill="#e69012"/>
    <g id="Group_94193" data-name="Group 94193" transform="translate(15.616 -0.003)">
      <path id="Path_137231" data-name="Path 137231" d="M321.2,28.551a1.234,1.234,0,1,0,.738,1.582A1.234,1.234,0,0,0,321.2,28.551Zm0,0" transform="translate(-306.618 -25.973)" fill="#ff8736"/>
      <path id="Path_137232" data-name="Path 137232" d="M452.158,101.259a1.235,1.235,0,1,0,.738,1.582A1.235,1.235,0,0,0,452.158,101.259Zm0,0" transform="translate(-426.066 -92.291)" fill="#ff8736"/>
      <path id="Path_137233" data-name="Path 137233" d="M174.143.072a1.234,1.234,0,1,0,.738,1.582,1.235,1.235,0,0,0-.738-1.582Zm0,0" transform="translate(-172.486 0.003)" fill="#ff8736"/>
    </g>
    <path id="Path_137234" data-name="Path 137234" d="M278.263,133.216a1.969,1.969,0,1,0,.686,2.26A1.706,1.706,0,0,0,278.263,133.216Zm0,0" transform="translate(-251.411 -121.45)" fill="#fa7ec1"/>
    <path id="Path_137235" data-name="Path 137235" d="M59.349,109.391a.659.659,0,0,1-.619-.434L58.019,107a.659.659,0,1,1,1.239-.451l.71,1.952a.659.659,0,0,1-.394.845A.666.666,0,0,1,59.349,109.391Zm0,0" transform="translate(-52.427 -96.795)" fill="#ff8736"/>
    <path id="Path_137236" data-name="Path 137236" d="M111.642,110.461a.66.66,0,0,1-.6-.938l.786-1.686a.659.659,0,1,1,1.195.557l-.786,1.685A.659.659,0,0,1,111.642,110.461Zm0,0" transform="translate(-100.773 -98.015)" fill="#ff8736"/>
    <path id="Path_137237" data-name="Path 137237" d="M13.727,149.07a.66.66,0,0,1-.278-.062l-1.685-.786a.659.659,0,0,1,.557-1.2l1.685.786a.659.659,0,0,1-.279,1.257Zm0,0" transform="translate(-9.926 -134.051)" fill="#ff8736"/>
  </g>
</svg>
